PathFileType	4	(X/Y/Z)	/Users/itak/Documents/Research/Walk-IL/dataset/trc/00071_00006.trc
DataRate	CameraRate	NumFrames	NumMarkers	Units	OrigDataRate	OrigDataStartFrame	OrigNumFrames
100.000000	100.000000	4	53	mm	100.000000	546	729
Frame#	Time	RPSI			LPSI			L3			STRN			T10			C7			CLAV			RBAK			LBAK			LSHO			LUPA			LAEL			LAOL			LWTS			LWPS			LFRA			LIFD			LHPS			LHTS			RSHO			RUPA			RAEL			RAOL			RWTS			RWPS			RFRA			RIFD			RHTS			RHPS			RBHD			LFHD			RFHD			LBHD			LHIP			RHIP			RASI			LASI			LKNE			LTHI			LANK			LTIP			LTOE			LMT1			LMT5			LHEE			RKNE			RTHI			RANK			RTIP			RTOE			RMT1			RMT5			RHEE			
		X1	Y1	Z1	X2	Y2	Z2	X3	Y3	Z3	X4	Y4	Z4	X5	Y5	Z5	X6	Y6	Z6	X7	Y7	Z7	X8	Y8	Z8	X9	Y9	Z9	X10	Y10	Z10	X11	Y11	Z11	X12	Y12	Z12	X13	Y13	Z13	X14	Y14	Z14	X15	Y15	Z15	X16	Y16	Z16	X17	Y17	Z17	X18	Y18	Z18	X19	Y19	Z19	X20	Y20	Z20	X21	Y21	Z21	X22	Y22	Z22	X23	Y23	Z23	X24	Y24	Z24	X25	Y25	Z25	X26	Y26	Z26	X27	Y27	Z27	X28	Y28	Z28	X29	Y29	Z29	X30	Y30	Z30	X31	Y31	Z31	X32	Y32	Z32	X33	Y33	Z33	X34	Y34	Z34	X35	Y35	Z35	X36	Y36	Z36	X37	Y37	Z37	X38	Y38	Z38	X39	Y39	Z39	X40	Y40	Z40	X41	Y41	Z41	X42	Y42	Z42	X43	Y43	Z43	X44	Y44	Z44	X45	Y45	Z45	X46	Y46	Z46	X47	Y47	Z47	X48	Y48	Z48	X49	Y49	Z49	X50	Y50	Z50	X51	Y51	Z51	X52	Y52	Z52	X53	Y53	Z53	

547	5.46	623.4509887695312	1017.893920898438	668.6000366210938	737.0587768554688	1001.921447753906	802.4464721679688	684.7317504882812	1073.99560546875	737.763671875	482.0083618164062	1279.703857421875	888.199462890625	698.33642578125	1208.181030273438	728.767578125	655.4030151367188	1475.744873046875	761.729248046875	509.6324768066406	1393.282104492188	869.31396484375	660.7128295898438	1335.434326171875	666.6421508789062	733.279052734375	1439.510620117188	826.1253051757812	698.6539306640625	1448.372192382812	945.2828369140625	767.2847290039062	1325.94970703125	993.1588134765625	780.748046875	1114.833740234375	1028.528198242188	762.2823486328125	1093.642456054688	925.4131469726562	666.2922973632812	880.7830200195312	1068.827758789062	749.5865478515625	867.0423583984375	1067.546142578125	771.487060546875	1007.2314453125	1055.870361328125	637.6019897460938	699.3204345703125	1075.322143554688	721.1710815429688	789.7879638671875	1096.036010742188	650.304443359375	801.9329223632812	1095.837036132812	502.9502563476562	1439.390502929688	659.109619140625	477.080810546875	1372.937133789062	599.9862670898438	471.671142578125	1114.360595703125	541.35107421875	508.3709411621094	1086.257690429688	629.8821411132812	353.0885925292969	877.790283203125	666.0888061523438	377.3785705566406	853.9478759765625	585.7349243164062	448.29443359375	1032.594848632812	541.8768310546875	353.8322448730469	695.29833984375	702.7803955078125	324.0650024414062	779.4317016601562	689.2825927734375	339.35693359375	767.94921875	613.284912109375	621.4915161132812	1675.9296875	866.6172485351562	420.0341186523438	1664.102905273438	790.8136596679688	449.5404968261719	1681.990600585938	912.7135620117188	583.026611328125	1648.61376953125	737.4766235351562	702.3907470703125	952.029541015625	942.0010986328125	523.7744140625	947.9383544921875	645.3778686523438	434.5342712402344	971.4727783203125	735.2188110351562	582.2459106445312	969.8145751953125	960.7415771484375	480.7806701660156	538.2074584960938	1066.692993164062	570.630859375	663.488037109375	1045.756469726562	662.565673828125	84.12694549560547	1035.581909179688	584.7887573242188	301.679931640625	1060.459350585938	483.5366821289062	67.80805206298828	1126.524536132812	498.0119934082031	68.14592742919922	1057.693725585938	593.0967407226562	62.49824142456055	1116.75537109375	669.8848266601562	88.46389770507812	944.532958984375	495.5750122070312	507.0943908691406	772.943115234375	458.4847106933594	772.01171875	713.7774047851562	609.3449096679688	35.82680130004883	783.2593383789062	518.8396606445312	381.7406005859375	776.2540283203125	489.3675842285156	39.37783432006836	967.1558837890625	559.656982421875	45.96232604980469	948.7989501953125	511.2150268554688	42.02862930297852	861.7386474609375	681.6039428710938	40.6520881652832	789.8870239257812	
548	5.47	621.5107421875	1017.724182128906	673.8529052734375	733.3447875976562	1002.021301269531	809.2410278320312	682.064697265625	1073.963623046875	743.6278076171875	477.3348083496094	1279.7529296875	891.4829711914062	695.5197143554688	1208.222412109375	734.7570190429688	651.9539794921875	1475.732666015625	766.8406982421875	505.0624084472656	1393.3115234375	872.7966918945312	658.4451293945312	1335.375122070312	671.921875	729.104248046875	1439.615234375	832.1221923828125	693.1398315429688	1448.553344726562	950.92138671875	761.4730834960938	1326.19189453125	999.4531860351562	774.91015625	1114.9814453125	1034.427368164062	757.4845581054688	1094.025756835938	931.1246948242188	660.3890380859375	880.6358642578125	1073.0849609375	743.729248046875	867.0394897460938	1072.543579101562	765.5651245117188	1007.304321289062	1061.43798828125	631.8833618164062	699.0593872070312	1078.613159179688	715.1493530273438	789.6268920898438	1100.459838867188	644.2600708007812	801.632080078125	1099.650756835938	500.7213439941406	1439.225952148438	662.4927368164062	475.5063171386719	1372.7197265625	603.0476684570312	470.3289489746094	1113.72265625	545.4439086914062	506.2296447753906	1085.901733398438	634.3995971679688	350.2900085449219	877.7926025390625	669.9329833984375	375.0096740722656	853.6988525390625	589.8087768554688	446.8229064941406	1032.009765625	546.0489501953125	350.2392272949219	695.3771362304688	707.0169067382812	321.4298095703125	779.421630859375	693.3955078125	336.5341186523438	767.9038696289062	617.312255859375	617.2194213867188	1675.87451171875	871.0922241210938	416.2466125488281	1664.156005859375	793.9212036132812	444.9417724609375	1681.99560546875	915.9815063476562	579.5882568359375	1648.613891601562	741.6650390625	696.8057861328125	952.2449340820312	948.4271850585938	522.1361694335938	947.8353881835938	649.1666259765625	431.5826110839844	971.4573364257812	738.0922241210938	576.5991821289062	970.1220092773438	965.6541137695312	474.1118469238281	538.4805297851562	1068.98193359375	564.4122924804688	663.3097534179688	1049.780517578125	639.2203369140625	78.42115783691406	1054.580444335938	569.0784912109375	299.2548522949219	1071.602783203125	456.1842346191406	70.06159210205078	1138.337036132812	473.4945983886719	68.50410461425781	1070.201171875	565.9237060546875	60.86152648925781	1133.185302734375	650.2260131835938	80.43250274658203	963.9705810546875	493.7543334960938	507.0050659179688	775.1561279296875	456.2958374023438	771.9558715820312	716.7223510742188	609.4346923828125	35.90975952148438	783.4121704101562	517.5929565429688	381.6189880371094	778.082275390625	489.4778442382812	39.25759887695312	967.3195190429688	559.6243286132812	45.73647689819336	948.8839721679688	511.1998291015625	42.00768280029297	861.8142700195312	681.6102905273438	40.92546081542969	789.96826171875	
549	5.48	619.4764404296875	1017.465637207031	679.072265625	729.5208129882812	1002.017211914062	815.9373168945312	679.2488403320312	1073.84912109375	749.4766845703125	472.6734619140625	1279.741333007812	894.7794189453125	692.671630859375	1208.168701171875	740.6983032226562	648.4945068359375	1475.63330078125	771.9373779296875	500.5025024414062	1393.26708984375	876.267578125	656.1355590820312	1335.22412109375	677.2037353515625	724.9136962890625	1439.632202148438	838.0935668945312	687.626953125	1448.66357421875	956.519775390625	755.6171875	1326.367797851562	1005.726806640625	768.9988403320312	1115.068603515625	1040.360717773438	752.6502075195312	1094.331420898438	936.8840942382812	654.379638671875	880.4517822265625	1077.378051757812	737.78564453125	866.9906005859375	1077.631103515625	759.5416870117188	1007.325439453125	1067.061889648438	626.1322021484375	698.7459106445312	1081.922973632812	709.04345703125	789.4157104492188	1104.956176757812	638.1419677734375	801.2865600585938	1103.514526367188	498.4945983886719	1439.022705078125	665.8609619140625	473.9015197753906	1372.427490234375	606.181884765625	469.0157775878906	1113.037963867188	549.4974365234375	504.1034851074219	1085.506225585938	638.8766479492188	347.4639587402344	877.7828979492188	673.74169921875	372.7028198242188	853.3919677734375	593.8936767578125	445.3956909179688	1031.3642578125	550.1900024414062	346.604248046875	695.474609375	711.3440551757812	318.7481384277344	779.4100341796875	697.5018920898438	333.7777099609375	767.8121948242188	621.3651733398438	612.95703125	1675.733642578125	875.5512084960938	412.4698791503906	1664.134765625	797.0404663085938	440.3623657226562	1681.90771484375	919.2280883789062	576.1410522460938	1648.540649414062	745.8507080078125	691.2191772460938	952.355712890625	954.763916015625	520.2891845703125	947.6912231445312	653.06640625	428.4964599609375	971.415771484375	741.0275268554688	570.9334716796875	970.3257446289062	970.5099487304688	467.9667663574219	538.4522705078125	1071.114501953125	558.57470703125	662.9153442382812	1053.693969726562	615.42578125	73.42732238769531	1072.479248046875	553.4482421875	297.0920715332031	1082.085815429688	428.9872436523438	72.93788909912109	1148.776611328125	449.0340576171875	69.46833801269531	1081.482421875	538.56103515625	59.95355987548828	1148.280395507812	630.040771484375	73.12815093994141	982.4739379882812	491.8614501953125	506.8660583496094	777.4315795898438	453.9515380859375	771.8578491210938	719.7280883789062	609.5488891601562	36.01350402832031	783.5986938476562	516.3173828125	381.4390869140625	779.984130859375	489.5856323242188	39.1347541809082	967.489990234375	559.526123046875	45.51690292358398	948.9551391601562	511.2074279785156	42.00894927978516	861.9132080078125	681.6277465820312	41.17398452758789	790.0781860351562	
550	5.49	617.3347778320312	1017.110778808594	684.263916015625	725.5910034179688	1001.895751953125	822.5436401367188	676.2811889648438	1073.639526367188	755.3117065429688	468.0079345703125	1279.653198242188	898.0794067382812	689.787841796875	1208.005249023438	746.584228515625	645.027099609375	1475.4384765625	777.0214233398438	495.96142578125	1393.14306640625	879.7409057617188	653.787353515625	1334.974243164062	682.4889526367188	720.7074584960938	1439.54638671875	844.042236328125	682.1268920898438	1448.681762695312	962.0789184570312	749.7247924804688	1326.455810546875	1011.978149414062	763.02490234375	1115.075561523438	1046.333251953125	747.7849731445312	1094.535888671875	942.694580078125	648.254638671875	880.218505859375	1081.70751953125	731.7412719726562	866.879638671875	1082.823486328125	753.4213256835938	1007.275756835938	1072.74951171875	620.3258666992188	698.3756713867188	1085.284423828125	702.8402099609375	789.1465454101562	1109.5498046875	631.937744140625	800.8953247070312	1107.435546875	496.2671203613281	1438.776489257812	669.2138061523438	472.2542419433594	1372.042114257812	609.4050903320312	467.7237548828125	1112.294555664062	553.5090942382812	501.9854125976562	1085.059814453125	643.3077392578125	344.6127624511719	877.7525634765625	677.5175170898438	370.4591064453125	853.0123291015625	597.9959106445312	444.0086669921875	1030.646606445312	554.2980346679688	342.91015625	695.5885009765625	715.7700805664062	315.9597778320312	779.4053955078125	701.5860595703125	331.0846252441406	767.6618041992188	625.4482421875	608.7073974609375	1675.49853515625	879.9904174804688	408.7103576660156	1664.034057617188	800.17138671875	435.8052062988281	1681.726684570312	922.4601440429688	572.68994140625	1648.378295898438	750.033935546875	685.6364135742188	952.348876953125	961.0169067382812	518.2152099609375	947.5145263671875	657.1084594726562	425.3014221191406	971.3399047851562	744.0316772460938	565.2348022460938	970.4027099609375	975.3015747070312	462.3063049316406	538.1323852539062	1073.131958007812	553.1011352539062	662.3023681640625	1057.54541015625	591.3616943359375	69.15593719482422	1089.211791992188	537.9925537109375	295.2156372070312	1091.88525390625	402.142333984375	76.46622467041016	1157.859252929688	424.7975463867188	71.07716369628906	1091.535278320312	511.1955261230469	59.76239776611328	1162.01220703125	609.4898681640625	66.59391784667969	999.9611206054688	489.91357421875	506.6726989746094	779.7494506835938	451.4567565917969	771.7086181640625	722.7825317382812	609.6846313476562	36.13672256469727	783.81396484375	515.0147705078125	381.2000122070312	781.9374389648438	489.6801147460938	39.01741790771484	967.655517578125	559.3892211914062	45.29605484008789	949.02099609375	511.237060546875	42.02871322631836	862.0379028320312	681.6585083007812	41.38833618164062	790.2089233398438	
